<svg xmlns="http://www.w3.org/2000/svg" width="75.746" height="84.349" viewBox="0 0 75.746 84.349">
  <g id="shop-bag" transform="translate(0 0)">
    <path id="Path_28" data-name="Path 28" d="M5.073,102.679.054,148.694A9,9,0,0,0,9,158.672H52.48a9,9,0,0,0,8.948-9.978l-5.02-46.015A3.68,3.68,0,0,0,52.751,99.4H8.732a3.681,3.681,0,0,0-3.659,3.281Zm0,0" transform="translate(0 -83.023)" fill="#f62779"/>
    <path id="Path_29" data-name="Path 29" d="M305.882,148.694l-5.02-46.015A3.68,3.68,0,0,0,297.2,99.4h-4.265a3.68,3.68,0,0,1,3.658,3.281l5.02,46.015a9,9,0,0,1-8.948,9.978h4.265A9,9,0,0,0,305.882,148.694Zm0,0" transform="translate(-244.453 -83.023)" fill="#ba365f"/>
    <path id="Path_30" data-name="Path 30" d="M.012,405.023a9,9,0,0,0,9,8.924H52.491a9,9,0,0,0,9-8.924Zm0,0" transform="translate(-0.01 -338.297)" fill="#ff76a4"/>
    <path id="Path_31" data-name="Path 31" d="M301.669,405.023a9,9,0,0,1-9,8.924h4.27c.16,0,.319-.005.477-.013l.161-.012c.106-.008.21-.015.315-.026.064-.007.126-.016.189-.024.093-.012.187-.023.279-.038.067-.01.133-.023.2-.035.088-.016.174-.031.261-.05.068-.014.135-.03.2-.046.084-.02.167-.04.249-.062s.134-.038.2-.058.16-.047.239-.073.135-.045.2-.068.153-.055.229-.084l.2-.079c.074-.03.147-.061.22-.093s.132-.059.2-.089.142-.068.212-.1.13-.066.194-.1.135-.074.2-.112.128-.072.191-.11.128-.079.191-.12.127-.08.189-.122.118-.082.178-.124.127-.088.189-.134.106-.082.159-.124.13-.1.193-.152c.035-.029.068-.059.1-.089.172-.147.34-.3.5-.458l.039-.037c.071-.071.139-.145.207-.218.033-.034.066-.068.1-.1.064-.071.126-.143.188-.216.033-.04.068-.079.1-.118.06-.073.117-.148.175-.223l.1-.125c.056-.076.11-.153.164-.23.03-.044.061-.087.09-.131.053-.078.1-.158.154-.239.028-.044.055-.089.082-.134.05-.082.1-.165.144-.249.024-.044.05-.089.073-.134.046-.086.091-.172.134-.26.022-.044.043-.089.064-.133.042-.09.084-.181.124-.272.019-.042.037-.086.055-.129.039-.095.078-.19.114-.286.015-.04.03-.08.044-.121.037-.1.072-.2.1-.3.012-.035.021-.071.032-.106.033-.109.066-.218.1-.328.006-.025.012-.05.019-.076.031-.122.061-.243.086-.366h0a8.993,8.993,0,0,0,.191-1.781Zm0,0" transform="translate(-244.453 -338.297)" fill="#ed5176"/>
    <path id="Path_32" data-name="Path 32" d="M237.053,264.12l-.584-14.418a3.921,3.921,0,0,0-3.759-3.759l-14.418-.584a3.921,3.921,0,0,0-2.931,1.145l-20.982,20.982a4.271,4.271,0,0,0,0,6.039l14.508,14.508a4.269,4.269,0,0,0,6.039,0l20.983-20.982a3.92,3.92,0,0,0,1.145-2.931ZM226.608,255.8a2.685,2.685,0,1,1,3.8,0A2.685,2.685,0,0,1,226.608,255.8Zm0,0" transform="translate(-161.312 -204.934)" fill="#ffcd34"/>
    <path id="Path_33" data-name="Path 33" d="M304.472,269.536l-.584-14.418a3.92,3.92,0,0,0-2.033-3.278,3.266,3.266,0,0,1,.326,1.572l-.469,13.364a4.239,4.239,0,0,1-1.27,2.806l-20.982,20.982c-1.667,1.667-4.182,1.858-5.615.424l2.462,2.462a4.271,4.271,0,0,0,6.039,0l20.982-20.982a3.922,3.922,0,0,0,1.145-2.931Zm0,0" transform="translate(-228.73 -210.35)" fill="#e69012"/>
    <g id="Group_96" data-name="Group 96" transform="translate(17.484 0)">
      <path id="Path_34" data-name="Path 34" d="M131.429,23.053a1.217,1.217,0,0,1-1.218-1.218V13.257a10.822,10.822,0,0,0-21.643,0v8.578a1.218,1.218,0,1,1-2.435,0V13.257a13.257,13.257,0,1,1,26.514,0v8.578a1.218,1.218,0,0,1-1.218,1.218Zm0,0" transform="translate(-106.133 0)" fill="#252d4c"/>
      <path id="Path_35" data-name="Path 35" d="M280.919,324.049a4.321,4.321,0,1,1,4.321-4.321A4.326,4.326,0,0,1,280.919,324.049Zm0-6.207a1.886,1.886,0,1,0,1.886,1.886A1.888,1.888,0,0,0,280.919,317.842Zm0,0" transform="translate(-248.514 -263.445)" fill="#252d4c"/>
      <path id="Path_36" data-name="Path 36" d="M328.162,398.127a4.321,4.321,0,1,1,4.321-4.321A4.326,4.326,0,0,1,328.162,398.127Zm0-6.207a1.886,1.886,0,1,0,1.886,1.886A1.888,1.888,0,0,0,328.162,391.92Zm0,0" transform="translate(-287.974 -325.319)" fill="#252d4c"/>
      <path id="Path_37" data-name="Path 37" d="M281.447,347.685a1.218,1.218,0,0,1-.861-2.079l12.793-12.793a1.218,1.218,0,0,1,1.722,1.722l-12.793,12.793A1.213,1.213,0,0,1,281.447,347.685Zm0,0" transform="translate(-251.548 -277.685)" fill="#252d4c"/>
    </g>
  </g>
</svg>
