<svg id="support" xmlns="http://www.w3.org/2000/svg" width="70" height="70" viewBox="0 0 70 70">
  <path id="Path_38" data-name="Path 38" d="M289.594,377.543H273.051a2.051,2.051,0,0,1,0-4.1h16.543a2.052,2.052,0,0,0,2.051-2.051v-8.34a2.051,2.051,0,0,1,4.1,0v8.34A6.159,6.159,0,0,1,289.594,377.543Zm0,0" transform="translate(-233.949 -311.645)" fill="#8ebac5"/>
  <path id="Path_39" data-name="Path 39" d="M113.594,26.8v4.1l-3.9.82a1.87,1.87,0,0,1-.205-.82V26.8a22.7,22.7,0,1,0-45.391,0v4.1a2.241,2.241,0,0,1-.369,1.148L60,30.9V26.8a26.8,26.8,0,1,1,53.594,0Zm0,0" transform="translate(-51.797)" fill="#a8d3d8"/>
  <path id="Path_40" data-name="Path 40" d="M282.8,26.8v4.1l-3.9.82a1.87,1.87,0,0,1-.205-.82V26.8A22.833,22.833,0,0,0,256,4.1V0A26.946,26.946,0,0,1,282.8,26.8Zm0,0" transform="translate(-221)" fill="#8ebac5"/>
  <path id="Path_41" data-name="Path 41" d="M428.152,235.609h-4.1A2.05,2.05,0,0,1,422,233.559V213.051A2.05,2.05,0,0,1,424.051,211h4.1a6.159,6.159,0,0,1,6.152,6.152v12.3A6.159,6.159,0,0,1,428.152,235.609Zm0,0" transform="translate(-364.305 -182.152)" fill="#f62779"/>
  <path id="Path_42" data-name="Path 42" d="M10.254,235.609h-4.1A6.159,6.159,0,0,1,0,229.457v-12.3A6.159,6.159,0,0,1,6.152,211h4.1a2.05,2.05,0,0,1,2.051,2.051v20.508A2.05,2.05,0,0,1,10.254,235.609Zm0,0" transform="translate(0 -182.152)" fill="#f62779"/>
  <path id="Path_43" data-name="Path 43" d="M66.152,213.812A6.159,6.159,0,0,1,60,207.66V187.152a6.152,6.152,0,0,1,12.3,0V207.66A6.159,6.159,0,0,1,66.152,213.812Zm0,0" transform="translate(-51.797 -156.254)" fill="#596c76"/>
  <path id="Path_44" data-name="Path 44" d="M368.152,213.812A6.159,6.159,0,0,1,362,207.66V187.152a6.152,6.152,0,0,1,12.3,0V207.66A6.159,6.159,0,0,1,368.152,213.812Zm0,0" transform="translate(-312.508 -156.254)" fill="#465a61"/>
  <path id="Path_45" data-name="Path 45" d="M217.152,422a6.152,6.152,0,1,0,6.152,6.152A6.144,6.144,0,0,0,217.152,422Zm0,0" transform="translate(-182.152 -364.305)" fill="#f62779"/>
  <path id="Path_46" data-name="Path 46" d="M262.152,428.152A6.144,6.144,0,0,1,256,434.3V422A6.144,6.144,0,0,1,262.152,428.152Zm0,0" transform="translate(-221 -364.305)" fill="#ab1651"/>
</svg>
