<svg id="delivery-truck" xmlns="http://www.w3.org/2000/svg" width="83.442" height="61.085" viewBox="0 0 83.442 61.085">
  <path id="Path_17" data-name="Path 17" d="M347.938,164.8H330.709v31.227h28.229V181.972l-3.292-11.379a8.024,8.024,0,0,0-7.707-5.794" transform="translate(-276.817 -149.123)" fill="#f62779"/>
  <path id="Path_18" data-name="Path 18" d="M374.959,201.97l-2.934-10.143a4.129,4.129,0,0,0-3.944-2.964H354.773V201.97Z" transform="translate(-296.959 -169.265)" fill="#84dbff"/>
  <path id="Path_19" data-name="Path 19" d="M374.928,201.938h-20.2V188.832Z" transform="translate(-296.924 -169.239)" fill="#cdd6e0"/>
  <path id="Path_20" data-name="Path 20" d="M374.959,201.97l-2.934-10.143a4.129,4.129,0,0,0-3.944-2.964H354.773Z" transform="translate(-296.959 -169.265)" fill="#f2f2f2"/>
  <path id="Path_21" data-name="Path 21" d="M5.215,68.6H48.678a5.215,5.215,0,0,1,5.215,5.215V115.5H0V73.812A5.214,5.214,0,0,1,5.215,68.6" transform="translate(0 -68.597)" fill="#ffd15c"/>
  <path id="Path_22" data-name="Path 22" d="M130.659,68.651V82.43l-2.016-2.016-2.114,2.114-2.112-2.114-2.112,2.114-2.116-2.114-2.14,2.114-2.11-2.114L113.9,82.454v-13.8Z" transform="translate(-95.338 -68.642)" fill="#f2f2f2"/>
  <path id="Path_23" data-name="Path 23" d="M83.478,324.977v5.893H.043v-5.893H8.752a11.948,11.948,0,0,1,20.859,0h28.02a11.932,11.932,0,0,1,20.84,0Z" transform="translate(-0.036 -278.076)" fill="#334a5e"/>
  <path id="Path_24" data-name="Path 24" d="M382.881,349.565a8.326,8.326,0,1,1-8.328-8.328,8.328,8.328,0,0,1,8.328,8.328" transform="translate(-306.548 -296.808)" fill="#40596b"/>
  <path id="Path_25" data-name="Path 25" d="M403.481,375.162a3.346,3.346,0,1,1-3.344-3.344,3.345,3.345,0,0,1,3.344,3.344" transform="translate(-332.128 -322.405)" fill="#acb3ba"/>
  <path id="Path_26" data-name="Path 26" d="M82.992,349.565a8.328,8.328,0,1,1-8.328-8.328,8.329,8.329,0,0,1,8.328,8.328" transform="translate(-55.526 -296.808)" fill="#40596b"/>
  <path id="Path_27" data-name="Path 27" d="M103.6,375.162a3.345,3.345,0,1,1-3.344-3.344,3.343,3.343,0,0,1,3.344,3.344" transform="translate(-81.115 -322.405)" fill="#acb3ba"/>
</svg>
